<svg xmlns="http://www.w3.org/2000/svg" viewBox="0 0 16 16" shape-rendering="auto">
  <path
     style="fill:none;fill-opacity:1;stroke:#1d1d1b;stroke-width:1;"
     d="m 4.5,3.5 5,0 3,3 0,7 -8,0 z" />
  <path
     style="fill:none;fill-opacity:1;stroke:#1d1d1b;stroke-width:1;"
     d="m 9.5,3.5 0,3 3,0" />
  <rect
     style="fill:#2c5a9d;fill-opacity:1;stroke:none;stroke-width:1;stroke-linejoin:miter;stroke-miterlimit:4;stroke-dasharray:none;stroke-opacity:1"
     width="8"
     height="4"
     x="2"
     y="8" />
  <g>
    <path
       d="m 3.5833426,9.4105892 0,1.1762418 0.1732501,0 q 0.2962827,0 0.4519567,-0.151065 0.1569294,-0.151065 0.1569294,-0.4389927 0,-0.2866364 -0.155674,-0.4364102 Q 4.0541308,9.4105892 3.7565927,9.4105892 l -0.1732501,0 z M 3.1,9.0348633 l 0.5097067,0 q 0.426848,0 0.6352503,0.063266 0.2096577,0.061976 0.3590545,0.2117493 0.1318207,0.1304067 0.1958479,0.300839 0.064027,0.1704324 0.064027,0.3860552 0,0.2182052 -0.064027,0.3899282 -0.064027,0.170433 -0.1958479,0.30084 -0.1506523,0.149773 -0.3615654,0.21304 -0.2109131,0.06198 -0.6327394,0.06198 l -0.5097067,0 0,-1.9276943 z"
       style="fill:#ffffff;fill-opacity:1" />
    <path
       d="m 6.0904468,9.3602342 q -0.2209566,0 -0.3427339,0.1678501 -0.1217772,0.16785 -0.1217772,0.4725627 0,0.303421 0.1217772,0.471271 0.1217773,0.16785 0.3427339,0.16785 0.222212,0 0.3439893,-0.16785 0.1217772,-0.16785 0.1217772,-0.471271 0,-0.3047127 -0.1217772,-0.4725627 Q 6.3126588,9.3602342 6.0904468,9.3602342 Z m 0,-0.3602321 q 0.4519567,0 0.7080655,0.2659778 0.2561088,0.2659778 0.2561088,0.7346671 0,0.467398 -0.2561088,0.733376 Q 6.5424035,11 6.0904468,11 5.6397455,11 5.3823813,10.734023 5.1262725,10.468045 5.1262725,10.000647 q 0,-0.4686893 0.2561088,-0.7346671 0.2573642,-0.2659778 0.7080655,-0.2659778 z"
       style="fill:#ffffff;fill-opacity:1" />
    <path
       d="m 8.9051324,10.856682 q -0.1330762,0.07101 -0.2774512,0.107166 -0.1443751,0.03615 -0.3013045,0.03615 -0.4682774,0 -0.7419623,-0.26856 -0.2736849,-0.269851 -0.2736849,-0.730793 0,-0.4622335 0.2736849,-0.7307937 Q 7.8580993,9 8.3263767,9 8.4833061,9 8.6276812,9.036152 8.7720562,9.072304 8.9051324,9.1433179 l 0,0.3989667 Q 8.7708008,9.4480327 8.6402355,9.4041334 8.5096702,9.3602342 8.3652952,9.3602342 q -0.2586197,0 -0.406761,0.1704323 -0.1481414,0.1704324 -0.1481414,0.4699805 0,0.298257 0.1481414,0.468688 0.1481413,0.170433 0.406761,0.170433 0.144375,0 0.2749403,-0.04389 0.1305653,-0.0439 0.2648969,-0.138154 l 0,0.398967 z"
       style="fill:#ffffff;fill-opacity:1" />
  </g>
</svg>
